{"title":"The Losers DVDSCR XViD - IMAGiNE","uid":5534930,"size":1634588326,"categoryP":"video","categoryS":"movies","magnet":"?xt=urn:btih:c6dd65a6013e66430ee2c40193f87e9fbe6d0c40&amp;dn=The+Losers+DVDSCR+XViD+-+IMAGiNE&amp;tr=udp%3A%2F%2Ftracker.openbittorrent.com%3A80&amp;tr=udp%3A%2F%2Fopen.demonii.com%3A1337&amp;tr=udp%3A%2F%2Ftracker.coppersurfer.tk%3A6969&amp;tr=udp%3A%2F%2Fexodus.desync.com%3A6969","seeders":0,"leechers":0,"uploader":"MAFIAA.","files":-1,"time":1273041464,"description":"     *********** ****    ****      ***      ******** *********** ****    *** **********\n          *+*     +*+*+* *+*+*+   *+* *+*   *+*    *+*    *+*     *+*+*   *+* *+*        \n          +*+     +*+ +*+*+ +*+  +*+   +*+  +*+           +*+     *+*+*+  +*+ +*+        \n          +$+     +$+  +*+  +$+ +$++*++$++* *$*           +$+     +$+ +*+ +$+ +$++*++$  \n          +$+     +$+       +$+ +$+     +$+ +$+   +$+$    +$+     +$+  +$+$+$ +$+        \n          $+$     $+$       $+$ $+$     $+$ $+$    $+$    $+$     $+$   $+$+$ $+$        \n      $$$$$$$$$$$ $$$       $$$ $$$     $$$  $$$$$$$$ $$$$$$$$$$$ $$$    $$$$ $$$$$$$$$$     \n                                               \n\n\n\n                          Another Fine Release Brought to you from - IMAGiNE                   \n                                               &lt;a href=&quot; http://imaginegroup.me/&quot; rel=&quot;nofollow&quot; target=&quot;_NEW&quot;&gt; http://imaginegroup.me/&lt;/a&gt;\n\n********************************************************************************************************************                                \n                                        The Losers DVDSCR XViD - IMAGiNE\n********************************************************************************************************************\n\nRipper ...........: IMAGiNE                                        IMDB Rating.......:6.9/10                             \nVideo Codec.......: XVID                                         Release Date......:04/05/10\nAudio Codec.......:AC-3                                           Theatre Date......:23/04/10\nAudio Bitrate.....:256                                              Runtime.......:1h 32mn\nSubtitles.........:ENG when needed                      Language..........:ENGLISH\nResolution...... 720 x 304                                      IMDb URL..........:http://www.imdb.com/title/tt0480255/\n\n\nDETAILS:\n\nVideo\nFormat                           : MPEG-4 Visual\nFormat profile                   : Streaming Video@L1\nFormat settings, BVOP            : Yes\nFormat settings, QPel            : No\nFormat settings, GMC             : No warppoints\nFormat settings, Matrix          : Default\nMuxing mode                      : Packed bitstream\nCodec ID                         : XVID\nCodec ID/Hint                    : XviD\nDuration                         : 1h 36mn\nBit rate                         : 1 958 Kbps\nWidth                            : 720 pixels\nHeight                           : 304 pixels\nDisplay aspect ratio             : 2.35\nFrame rate                       : 23.976 fps\nResolution                       : 24 bits\nColorimetry                      : 4:2:0\nScan type                        : Progressive\nBits/(Pixel*Frame)               : 0.373\nStream size                      : 1.33 GiB (88%)\nWriting library                  : XviD 50\n\nAudio\nFormat                           : AC-3\nFormat/Info                      : Audio Coding 3\nCodec ID                         : 2000\nDuration                         : 1h 36mn\nBit rate mode                    : Constant\nBit rate                         : 256 Kbps\nChannel(s)                       : 2 channels\nChannel positions                : L R\nSampling rate                    : 48.0 KHz\nStream size                      : 178 MiB (12%)\nAlignment                        : Aligned on interleaves\nInterleave, duration             : 42 ms (1.00 video frame)\nInterleave, preload duration     : 512 ms\n\n\n\n\nNOTES:\n\nIMAGiNE bringing you another release.....The Losers DVDSCR\nWell wouldn't you know it, as soon as we do a TS of the losers a DVDSCR was dumped in our lap by our good friend MrFreestyle... Thanx bro\nThis turned out to be a very nice source so not much had been done other than a few tweaks here and there. Audio is nice crisp studio audio. Scanned through it and did not see any property of or anything like that, but i could have missed it.\n\n\nEnjoy...\n\nSCREENS:\n &lt;a href=&quot;\nhttp://bayimg.com/PAMmmAACF&quot; rel=&quot;nofollow&quot; target=&quot;_NEW&quot;&gt;\nhttp://bayimg.com/PAMmmAACF&lt;/a&gt; &lt;a href=&quot;\nhttp://bayimg.com/PAMMNAACF&quot; rel=&quot;nofollow&quot; target=&quot;_NEW&quot;&gt;\nhttp://bayimg.com/PAMMNAACF&lt;/a&gt; &lt;a href=&quot;\nhttp://bayimg.com/paMMOAacf&quot; rel=&quot;nofollow&quot; target=&quot;_NEW&quot;&gt;\nhttp://bayimg.com/paMMOAacf&lt;/a&gt; &lt;a href=&quot;\nhttp://bayimg.com/PamMPaACf&quot; rel=&quot;nofollow&quot; target=&quot;_NEW&quot;&gt;\nhttp://bayimg.com/PamMPaACf&lt;/a&gt;\n\n\n\nGREETS:\n\nFLAWL3SS,ViSiON,FUSiON,Rx,SecretMyth,BirdFlu,ELEKTRI4KA\nAnd to all the other p2p grps past and present \n\n\nLooking for these,syncers,cammers,silver supplier.....Have anything to offer????......\nContact us &lt;a class=&quot;__cf_email__&quot; href=&quot;/cdn-cgi/l/email-protection&quot; data-cfemail=&quot;91f8fcf0f6f8fff4f6e3fee4e1d1f9e4e2f9fcf0f8fdbff2fefc&quot;&gt;[email&amp;#160;protected]&lt;/a&gt;&lt;script cf-hash='f9e31' type=&quot;text/javascript&quot;&gt;\n/* &lt;![CDATA[ */!function(){try{var t=&quot;currentScript&quot;in document?document.currentScript:function(){for(var t=document.getElementsByTagName(&quot;script&quot;),e=t.length;e--;)if(t[e].getAttribute(&quot;cf-hash&quot;))return t[e]}();if(t&amp;&amp;t.previousSibling){var e,r,n,i,c=t.previousSibling,a=c.getAttribute(&quot;data-cfemail&quot;);if(a){for(e=&quot;&quot;,r=parseInt(a.substr(0,2),16),n=2;a.length-n;n+=2)i=parseInt(a.substr(n,2),16)^r,e+=String.fromCharCode(i);e=document.createTextNode(e),c.parentNode.replaceChild(e,c)}}}catch(u){}}();/* ]]&gt; */&lt;/script&gt;\n","torrent":{"xt":"urn:btih:c6dd65a6013e66430ee2c40193f87e9fbe6d0c40","amp;dn":"The+Losers+DVDSCR+XViD+-+IMAGiNE","amp;tr":["udp%3A%2F%2Ftracker.openbittorrent.com%3A80","udp%3A%2F%2Fopen.demonii.com%3A1337","udp%3A%2F%2Ftracker.coppersurfer.tk%3A6969","udp%3A%2F%2Fexodus.desync.com%3A6969"],"infoHash":"c6dd65a6013e66430ee2c40193f87e9fbe6d0c40","infoHashBuffer":{"type":"Buffer","data":[198,221,101,166,1,62,102,67,14,226,196,1,147,248,126,159,190,109,12,64]},"announce":[],"urlList":[]}}